<svg xmlns="http://www.w3.org/2000/svg" width="1400" height="540" viewBox="0 0 1400 540"><defs><linearGradient id="bg" x1="0" y1="0" x2="1" y2="1"><stop stop-color="#f8fbff"/><stop offset="1" stop-color="#eef2ff"/></linearGradient><filter id="s"><feDropShadow dx="0" dy="8" stdDeviation="10" flood-color="#0f172a" flood-opacity=".10"/></filter><marker id="a" markerWidth="10" markerHeight="10" refX="9" refY="3" orient="auto"><path d="M0 0L0 6L9 3z" fill="#64748b"/></marker><style>.c{fill:#fff;stroke:#dbe7f5;stroke-width:1.5;rx:18;filter:url(#s)}.t{font:700 30px Inter,Arial;fill:#0f172a}.st{font:500 14px Inter,Arial;fill:#64748b}.h{font:700 18px Inter,Arial;fill:#0f172a}.p{font:500 13px Inter,Arial;fill:#64748b}.x{stroke:#64748b;stroke-width:2.5;fill:none;marker-end:url(#a)}</style></defs><rect width="1400" height="540" rx="26" fill="url(#bg)"/><text class="t" x="70" y="62">FleetMind AI · Role-Aware Fleet Intelligence</text><text class="st" x="70" y="90">Deterministic analytics → grounded retrieval → policy → AI explanation → protected action</text><rect class="c" x="60" y="170" width="190" height="160"/><text class="h" x="85" y="215">Fleet Data</text><text class="p" x="85" y="245">Vehicles · telemetry</text><text class="p" x="85" y="268">Service signals</text><rect class="c" x="300" y="170" width="210" height="160"/><text class="h" x="325" y="215">Risk Engine</text><text class="p" x="325" y="245">KPIs · urgency</text><text class="p" x="325" y="268">Deterministic scoring</text><rect class="c" x="560" y="105" width="210" height="140"/><text class="h" x="585" y="150">RAG Knowledge</text><text class="p" x="585" y="178">Validated documents</text><text class="p" x="585" y="201">Cited retrieval</text><rect class="c" x="560" y="285" width="210" height="140"/><text class="h" x="585" y="330">Predictive ML</text><text class="p" x="585" y="358">Scania APS model</text><text class="p" x="585" y="381">Model card + limits</text><rect class="c" x="820" y="170" width="220" height="160"/><text class="h" x="845" y="215">RBAC Policy Layer</text><text class="p" x="845" y="245">Manager · technician</text><text class="p" x="845" y="268">Viewer boundaries</text><rect class="c" x="1090" y="105" width="240" height="140"/><text class="h" x="1115" y="150">Grounded Assistant</text><text class="p" x="1115" y="178">Evidence-first answers</text><text class="p" x="1115" y="201">Bedrock / demo gateway</text><rect class="c" x="1090" y="285" width="240" height="140"/><text class="h" x="1115" y="330">Fleet Workspace</text><text class="p" x="1115" y="358">React dashboard</text><text class="p" x="1115" y="381">Protected operations</text><path class="x" d="M250 250H300"/><path class="x" d="M510 250H820"/><path class="x" d="M770 175C795 175 795 220 820 220"/><path class="x" d="M770 355C795 355 795 280 820 280"/><path class="x" d="M1040 220C1065 220 1065 175 1090 175"/><path class="x" d="M1040 280C1065 280 1065 355 1090 355"/><text class="st" x="70" y="490">Security principle: model outputs never bypass role policy, and generative text never invents vehicle telemetry.</text></svg>